<?xml version="1.0" ?><svg viewBox="0 0 512 512" xmlns="http://www.w3.org/2000/svg"><title/><desc/><g id="Flat"><polygon points="92.715 16.055 92.521 39.135 82.9 14.487 67.996 20.304 77.617 44.953 61.839 28.105 50.161 39.043 88 80 108.354 71 108.715 16.188 92.715 16.055" style="fill:#7eb457"/><path d="M174.35,270.78a17.811,17.811,0,0,1-22.28-8.38l-78-150.25a35.945,35.945,0,1,1,66.59-25.98l.08.29,4.22,15.53,4.21,15.49,4.22,15.53,4.22,15.52,4.22,15.53,4.2,15.45,4.22,15.54,4.32,15.88,4.22,15.51,6.27,23.08A17.824,17.824,0,0,1,174.35,270.78Z" style="fill:#f98500"/><path d="M144.96,101.99l-31.7,12.29a8,8,0,0,1-5.81-14.91l33.29-12.91Z" style="fill:#fa6d00"/><path d="M153.39,133.01,124.9,144.09a8,8,0,0,1-5.82-14.91l30.09-11.7Z" style="fill:#fa6d00"/><path d="M161.83,164.06l-25.3,9.84a8,8,0,1,1-5.81-14.91l26.89-10.46Z" style="fill:#fa6d00"/><path d="M170.25,195.05l-22.08,8.66a8,8,0,0,1-5.82-14.91l23.68-9.29Z" style="fill:#fa6d00"/><path d="M178.79,226.44l-18.99,7.08a8,8,0,0,1-5.81-14.91l20.58-7.68Z" style="fill:#fa6d00"/><path d="M268.5,123.944a20.509,20.509,0,0,1-8.621-20.751A34.387,34.387,0,0,0,232.2,62.579,20.919,20.919,0,0,1,215.709,48.3a34.937,34.937,0,0,0-2.108-5.276,34.387,34.387,0,0,0-62.616,28.323q.6,1.472,1.316,2.857c3.619,7,2.555,15.392-1.987,21.829a34.386,34.386,0,0,0,8.673,48.231,20.51,20.51,0,0,1,8.324,20.872,34.381,34.381,0,0,0,66.228,17.806,34.382,34.382,0,0,0,34.963-59Z" style="fill:#598c44"/><polygon points="261.548 230.53 233.992 162.838 248.992 140.733 235.752 131.749 226.741 145.027 214.545 115.066 229.545 92.961 216.305 83.977 207.294 97.255 193.483 63.328 178.665 69.36 192.476 103.287 176.754 100.077 173.553 115.754 199.727 121.098 211.923 151.06 196.2 147.849 192.999 163.526 219.174 168.87 246.729 236.562 261.548 230.53" style="fill:#79ad54"/><path d="M346.452,151.409a20.507,20.507,0,0,1-.16-22.47,34.386,34.386,0,0,0-10.326-48.052,20.922,20.922,0,0,1-9.89-19.443,35.057,35.057,0,0,0,.037-5.682,34.387,34.387,0,0,0-68.674,2.624q0,1.588.142,3.142c.714,7.846-3.437,15.22-10.071,19.469a34.387,34.387,0,0,0-10.152,47.942,20.507,20.507,0,0,1-.16,22.47,34.381,34.381,0,0,0,54.627,41.462,34.382,34.382,0,0,0,54.627-41.462Z" style="fill:#5f9548"/><polygon points="313.177 146.29 299.825 155.191 299.825 122.842 322.052 108.024 313.177 94.711 299.825 103.613 299.825 66.982 283.825 66.982 283.825 103.613 270.474 94.711 261.599 108.024 283.825 122.842 283.825 155.191 270.474 146.29 261.599 159.603 283.825 174.42 283.825 247.507 299.825 247.507 299.825 174.42 322.052 159.603 313.177 146.29" style="fill:#7eb457"/><path d="M400,248l-96-32L356.86,57.42A48.876,48.876,0,0,1,403.228,24h3.627a48.877,48.877,0,0,1,30.533,10.71h0a48.876,48.876,0,0,1,15.835,53.621Z" style="fill:#ffb531"/><rect height="16" style="fill:#f98500" transform="translate(-8.368 66.915) rotate(-9.464)" width="48.662" x="375.669" y="76"/><rect height="16" style="fill:#f98500" transform="translate(-16.478 64.937) rotate(-9.464)" width="48.662" x="359.669" y="124"/><polygon points="336 168 336 456 96 456 96 168 120 184 144 168 168 184 192 168 216 184 240 168 264 184 288 168 312 184 336 168" style="fill:#ffb531"/><path d="M336,234.28V456H96V407.47C184.13,377.92,271.43,323.96,336,234.28Z" style="fill:#fcac1f"/><polygon points="432 168 432 456 336 456 336 168 360 184 376 173.33 384 168 392 173.33 408 184 432 168" style="fill:#f98500"/><polygon points="432 444.68 432 456 420.68 456 384 419.31 347.32 456 336 456 336 444.68 376 404.69 376 173.33 384 168 392 173.33 392 404.69 432 444.68" style="fill:#f07800"/><circle cx="97.539" cy="424" r="64" style="fill:#f35244"/><polygon points="96.384 377.548 67.49 376.16 79.922 347.151 65.215 340.849 52.899 369.585 27.314 344 16 355.313 41.585 380.9 12.849 393.215 19.151 407.921 47.713 395.681 48 425.616 64 425.462 63.679 391.996 95.616 393.53 96.384 377.548" style="fill:#5f9548"/><path d="M232,320h0l8,16h0a39.964,39.964,0,0,0-10.512,37.952L232,384H200V371.777A57.889,57.889,0,0,1,232,320Z" style="fill:#5f9548"/><path d="M185.065,488h0A22.935,22.935,0,0,1,163.1,471.655l-18.02-60.065A25.542,25.542,0,0,1,144,404.252V401.54A25.539,25.539,0,0,1,169.54,376h0a25.54,25.54,0,0,1,21.9,12.4L208,416v49.065A22.936,22.936,0,0,1,185.065,488Z" style="fill:#fa9f0c"/><path d="M246.935,488h0A22.935,22.935,0,0,0,268.9,471.655l18.02-60.065A25.542,25.542,0,0,0,288,404.252V401.54A25.539,25.539,0,0,0,262.46,376h0a25.54,25.54,0,0,0-21.9,12.4L224,416v49.065A22.936,22.936,0,0,0,246.935,488Z" style="fill:#fa9f0c"/><rect height="112" rx="24" ry="24" style="fill:#ffb531" width="48" x="192" y="376"/></g></svg>